# xmcd
#
# Track frame offsets:
#	150
#	10361
#	20321
#	37864
#	48818
#	58663
#	70677
#	82289
#	94670
#	102503
#	109014
#	127893
#
# Disc length: 1785 seconds
#
# Revision: 0
# Processed by: cddbd v1.5.2PL0 Copyright (c) Steve Scherf et al.
# Submitted via: dBpowerAMP V4.0
#
DISCID=9106f70c
DTITLE=Bearsuit - oh:io
DYEAR=2007
DGENRE=Pop
TTITLE0=Jupiter Force [recruitment video]
TTITLE1=More Soul Than Wigan Casino
TTITLE2=Steven F***ing Spieldberg
TTITLE3=Dinosaur Heart
TTITLE4=Keep It Together, Somehow
TTITLE5=Look A Bleached Coral Faced Crow With Jewels For Eyes
TTITLE6=Foxy Boxer
TTITLE7=The Love Will Never Find You
TTITLE8=Hark! The Feral Children
TTITLE9=Shh Get Out
TTITLE10=Mission io Must Not Fail
TTITLE11=Stay Alive
EXTD=
EXTT0=
EXTT1=
EXTT2=
EXTT3=
EXTT4=
EXTT5=
EXTT6=
EXTT7=
EXTT8=
EXTT9=
EXTT10=
EXTT11=
PLAYORDER=
